<mxfile host="app.diagrams.net" modified="2022-07-28T14:16:30.992Z" agent="5.0 (Windows)" etag="7AikcPZISTc3bqjDcjq_" version="20.2.2" type="github">
  <diagram id="C5RBs43oDa-KdzZeNtuy" name="Page-1">
    <mxGraphModel dx="1378" dy="776" grid="1" gridSize="10" guides="1" tooltips="1" connect="1" arrows="1" fold="1" page="1" pageScale="1" pageWidth="827" pageHeight="1169" math="0" shadow="0">
      <root>
        <mxCell id="WIyWlLk6GJQsqaUBKTNV-0" />
        <mxCell id="WIyWlLk6GJQsqaUBKTNV-1" parent="WIyWlLk6GJQsqaUBKTNV-0" />
        <mxCell id="s0az6aumU0_sVPZmCAAS-11" value="" style="edgeStyle=orthogonalEdgeStyle;rounded=0;orthogonalLoop=1;jettySize=auto;html=1;fontFamily=Helvetica;fontSize=14;" edge="1" parent="WIyWlLk6GJQsqaUBKTNV-1" source="bkmcW2qwPOxSgzUlpzTJ-0" target="VKYqEhsGUvJdusKVCXXP-2">
          <mxGeometry relative="1" as="geometry" />
        </mxCell>
        <mxCell id="bkmcW2qwPOxSgzUlpzTJ-0" value="Start" style="strokeWidth=2;html=1;shape=mxgraph.flowchart.start_1;whiteSpace=wrap;fillColor=#FF0000;" parent="WIyWlLk6GJQsqaUBKTNV-1" vertex="1">
          <mxGeometry x="300" y="200" width="100" height="60" as="geometry" />
        </mxCell>
        <mxCell id="s0az6aumU0_sVPZmCAAS-13" value="" style="edgeStyle=orthogonalEdgeStyle;rounded=0;orthogonalLoop=1;jettySize=auto;html=1;fontFamily=Helvetica;fontSize=14;" edge="1" parent="WIyWlLk6GJQsqaUBKTNV-1" source="bkmcW2qwPOxSgzUlpzTJ-5" target="s0az6aumU0_sVPZmCAAS-9">
          <mxGeometry relative="1" as="geometry" />
        </mxCell>
        <mxCell id="bkmcW2qwPOxSgzUlpzTJ-5" value="&lt;div&gt;vecOUT = 0&lt;br&gt;&lt;/div&gt;" style="rounded=0;whiteSpace=wrap;html=1;fillColor=#00FFFF;" parent="WIyWlLk6GJQsqaUBKTNV-1" vertex="1">
          <mxGeometry x="290" y="420" width="120" height="80" as="geometry" />
        </mxCell>
        <mxCell id="bkmcW2qwPOxSgzUlpzTJ-13" value="End" style="strokeWidth=2;html=1;shape=mxgraph.flowchart.start_1;whiteSpace=wrap;fillColor=#FF0000;" parent="WIyWlLk6GJQsqaUBKTNV-1" vertex="1">
          <mxGeometry x="470" y="680" width="100" height="60" as="geometry" />
        </mxCell>
        <mxCell id="VKYqEhsGUvJdusKVCXXP-0" value="&lt;div style=&quot;font-size: 14px;&quot; align=&quot;justify&quot;&gt;&lt;b&gt;N&lt;/b&gt;- размерность векторов&lt;br style=&quot;font-size: 14px;&quot;&gt;&lt;b&gt;vecA, vecB &lt;/b&gt;- векторы размерности N&lt;br style=&quot;font-size: 14px;&quot;&gt;&lt;br&gt;&lt;/div&gt;" style="text;html=1;strokeColor=none;fillColor=none;align=center;verticalAlign=middle;whiteSpace=wrap;rounded=0;fontFamily=Helvetica;fontSize=14;" parent="WIyWlLk6GJQsqaUBKTNV-1" vertex="1">
          <mxGeometry x="530" y="150" width="267" height="50" as="geometry" />
        </mxCell>
        <mxCell id="s0az6aumU0_sVPZmCAAS-12" value="" style="edgeStyle=orthogonalEdgeStyle;rounded=0;orthogonalLoop=1;jettySize=auto;html=1;fontFamily=Helvetica;fontSize=14;" edge="1" parent="WIyWlLk6GJQsqaUBKTNV-1" source="VKYqEhsGUvJdusKVCXXP-2" target="bkmcW2qwPOxSgzUlpzTJ-5">
          <mxGeometry relative="1" as="geometry" />
        </mxCell>
        <mxCell id="VKYqEhsGUvJdusKVCXXP-2" value="&lt;div&gt;Input&lt;/div&gt;&lt;div&gt;&lt;b&gt;N, vecA [1..N], vecB [1..N]&lt;/b&gt;&lt;b&gt;&lt;br&gt;&lt;/b&gt;&lt;/div&gt;" style="shape=parallelogram;perimeter=parallelogramPerimeter;whiteSpace=wrap;html=1;fixedSize=1;fillColor=#00FF00;" parent="WIyWlLk6GJQsqaUBKTNV-1" vertex="1">
          <mxGeometry x="270" y="300" width="160" height="80" as="geometry" />
        </mxCell>
        <mxCell id="VKYqEhsGUvJdusKVCXXP-14" value="&lt;b&gt;distance &amp;lt; 10&lt;/b&gt;" style="strokeWidth=2;html=1;shape=mxgraph.flowchart.decision;whiteSpace=wrap;labelBackgroundColor=none;fontColor=default;fillColor=#FFFF00;" parent="WIyWlLk6GJQsqaUBKTNV-1" vertex="1">
          <mxGeometry x="590" y="400" width="200" height="100" as="geometry" />
        </mxCell>
        <mxCell id="s0az6aumU0_sVPZmCAAS-19" value="" style="edgeStyle=orthogonalEdgeStyle;rounded=0;orthogonalLoop=1;jettySize=auto;html=1;fontFamily=Helvetica;fontSize=14;" edge="1" parent="WIyWlLk6GJQsqaUBKTNV-1" source="VKYqEhsGUvJdusKVCXXP-15" target="bkmcW2qwPOxSgzUlpzTJ-13">
          <mxGeometry relative="1" as="geometry" />
        </mxCell>
        <mxCell id="VKYqEhsGUvJdusKVCXXP-15" value="&lt;div&gt;Output&lt;/div&gt;&lt;div&gt;Count&lt;br&gt;&lt;/div&gt;" style="shape=document;whiteSpace=wrap;html=1;boundedLbl=1;fillColor=#00FF00;" parent="WIyWlLk6GJQsqaUBKTNV-1" vertex="1">
          <mxGeometry x="460" y="540" width="120" height="80" as="geometry" />
        </mxCell>
        <mxCell id="s0az6aumU0_sVPZmCAAS-1" value="&lt;font face=&quot;Helvetica&quot;&gt;Задачи 1&lt;br&gt;&lt;span style=&quot;white-space: pre;&quot;&gt;	&lt;/span&gt;A. Найти скалярное произведение 2-х векторов. Сначала берем вектора размерности 2 или 3, затем произвольной (но одинаковой) размерности.&lt;br&gt;&lt;span style=&quot;white-space: pre;&quot;&gt;	&lt;/span&gt;B. Посчитать количество положительных чисел в произвольно заданном массиве.&lt;br&gt;&lt;span style=&quot;white-space: pre;&quot;&gt;	&lt;/span&gt;C. Найти сумму всех элементов массива с нечетными индексами.&lt;br&gt;&lt;span style=&quot;white-space: pre;&quot;&gt;	&lt;/span&gt;D. Найти сумму всех элементов массива с нечетным значением . Например, для массива [1, 2, 4, 6] ответ будет 1, т.к. здесь у нас только один нечетный элемент.&lt;/font&gt;" style="text;html=1;strokeColor=none;fillColor=none;align=left;verticalAlign=middle;whiteSpace=wrap;rounded=0;fontSize=14;" vertex="1" parent="WIyWlLk6GJQsqaUBKTNV-1">
          <mxGeometry x="10" y="10" width="790" height="150" as="geometry" />
        </mxCell>
        <mxCell id="s0az6aumU0_sVPZmCAAS-8" value="" style="shape=image;verticalLabelPosition=bottom;labelBackgroundColor=default;verticalAlign=top;aspect=fixed;imageAspect=0;image=https://cf3.ppt-online.org/files3/slide/h/h4YnWBOAXGS1Z7acL6PIfHM0s3dEpgQ9rj5uJK/slide-0.jpg;" vertex="1" parent="WIyWlLk6GJQsqaUBKTNV-1">
          <mxGeometry x="610" y="200" width="190" height="142.13" as="geometry" />
        </mxCell>
        <mxCell id="s0az6aumU0_sVPZmCAAS-14" value="" style="edgeStyle=orthogonalEdgeStyle;rounded=0;orthogonalLoop=1;jettySize=auto;html=1;fontFamily=Helvetica;fontSize=14;" edge="1" parent="WIyWlLk6GJQsqaUBKTNV-1" source="s0az6aumU0_sVPZmCAAS-9" target="s0az6aumU0_sVPZmCAAS-10">
          <mxGeometry relative="1" as="geometry" />
        </mxCell>
        <mxCell id="s0az6aumU0_sVPZmCAAS-18" value="" style="edgeStyle=orthogonalEdgeStyle;rounded=0;orthogonalLoop=1;jettySize=auto;html=1;fontFamily=Helvetica;fontSize=14;" edge="1" parent="WIyWlLk6GJQsqaUBKTNV-1" source="s0az6aumU0_sVPZmCAAS-9" target="VKYqEhsGUvJdusKVCXXP-15">
          <mxGeometry relative="1" as="geometry" />
        </mxCell>
        <mxCell id="s0az6aumU0_sVPZmCAAS-9" value="&lt;div&gt;Count&lt;/div&gt;&lt;div&gt;I = 1..N&lt;br&gt;&lt;/div&gt;" style="shape=hexagon;perimeter=hexagonPerimeter2;whiteSpace=wrap;html=1;fixedSize=1;fontFamily=Helvetica;fontSize=14;fillColor=#00FFFF;" vertex="1" parent="WIyWlLk6GJQsqaUBKTNV-1">
          <mxGeometry x="290" y="540" width="120" height="80" as="geometry" />
        </mxCell>
        <mxCell id="s0az6aumU0_sVPZmCAAS-16" value="" style="edgeStyle=orthogonalEdgeStyle;rounded=0;orthogonalLoop=1;jettySize=auto;html=1;fontFamily=Helvetica;fontSize=14;" edge="1" parent="WIyWlLk6GJQsqaUBKTNV-1" source="s0az6aumU0_sVPZmCAAS-10" target="s0az6aumU0_sVPZmCAAS-15">
          <mxGeometry relative="1" as="geometry" />
        </mxCell>
        <mxCell id="s0az6aumU0_sVPZmCAAS-10" value="&lt;div&gt;vecOUT = &lt;br&gt;&lt;/div&gt;vecOUT + vecA[I]*vecB[I]" style="rounded=0;whiteSpace=wrap;html=1;fillColor=#00FFFF;" vertex="1" parent="WIyWlLk6GJQsqaUBKTNV-1">
          <mxGeometry x="290" y="660" width="120" height="80" as="geometry" />
        </mxCell>
        <mxCell id="s0az6aumU0_sVPZmCAAS-17" value="" style="edgeStyle=orthogonalEdgeStyle;rounded=0;orthogonalLoop=1;jettySize=auto;html=1;fontFamily=Helvetica;fontSize=14;" edge="1" parent="WIyWlLk6GJQsqaUBKTNV-1" source="s0az6aumU0_sVPZmCAAS-15" target="s0az6aumU0_sVPZmCAAS-9">
          <mxGeometry relative="1" as="geometry" />
        </mxCell>
        <mxCell id="s0az6aumU0_sVPZmCAAS-15" value="" style="shape=waypoint;sketch=0;size=6;pointerEvents=1;points=[];fillColor=#00FFFF;resizable=0;rotatable=0;perimeter=centerPerimeter;snapToPoint=1;rounded=0;" vertex="1" parent="WIyWlLk6GJQsqaUBKTNV-1">
          <mxGeometry x="200" y="560" width="40" height="40" as="geometry" />
        </mxCell>
        <mxCell id="s0az6aumU0_sVPZmCAAS-20" value="&lt;font style=&quot;font-size: 20px;&quot;&gt;A&lt;/font&gt;" style="text;html=1;align=center;verticalAlign=middle;resizable=0;points=[];autosize=1;strokeColor=none;fillColor=none;fontSize=14;fontFamily=Helvetica;" vertex="1" parent="WIyWlLk6GJQsqaUBKTNV-1">
          <mxGeometry x="340" y="150" width="40" height="40" as="geometry" />
        </mxCell>
      </root>
    </mxGraphModel>
  </diagram>
</mxfile>
